<?xml version="1.0" encoding="UTF-8" standalone="no"?>
<svg
   version="1.0"
   width="534.000000pt"
   height="489.000000pt"
   viewBox="0 0 534.000000 489.000000"
   preserveAspectRatio="xMidYMid meet"
   id="svg4"
   sodipodi:docname="logo.svg"
   inkscape:version="1.4 (86a8ad7, 2024-10-11)"
   xmlns:inkscape="http://www.inkscape.org/namespaces/inkscape"
   xmlns:sodipodi="http://sodipodi.sourceforge.net/DTD/sodipodi-0.dtd"
   xmlns="http://www.w3.org/2000/svg"
   xmlns:svg="http://www.w3.org/2000/svg">
  <defs
     id="defs4">
    <rect
       x="159.72818"
       y="476.2804"
       width="408.03291"
       height="164.08441"
       id="rect9" />
  </defs>
  <sodipodi:namedview
     id="namedview4"
     pagecolor="#ffffff"
     bordercolor="#000000"
     borderopacity="0.25"
     inkscape:showpageshadow="2"
     inkscape:pageopacity="0.0"
     inkscape:pagecheckerboard="0"
     inkscape:deskcolor="#d1d1d1"
     inkscape:document-units="pt"
     inkscape:zoom="0.68866995"
     inkscape:cx="378.26538"
     inkscape:cy="328.89485"
     inkscape:window-width="1600"
     inkscape:window-height="837"
     inkscape:window-x="-8"
     inkscape:window-y="-8"
     inkscape:window-maximized="1"
     inkscape:current-layer="svg4" />
  <g
     transform="matrix(0.06892559,0,0,-0.06892559,77.177725,358.22718)"
     fill="#000000"
     stroke="none"
     id="g4">
    <path
       d="m 2475,4830 c -167,-23 -470,-116 -720,-222 -88,-38 -295,-156 -392,-225 C 1287,4329 964,4017 901,3936 818,3830 752,3718 662,3535 558,3322 562,3333 511,3155 c -68,-236 -94,-415 -95,-655 -1,-198 4,-259 40,-480 23,-138 106,-389 194,-585 124,-276 245,-452 459,-665 138,-137 186,-176 366,-297 136,-91 215,-135 330,-182 44,-18 92,-40 107,-47 15,-8 30,-14 34,-14 3,1 11,-5 17,-13 10,-12 56,-32 97,-42 3,-1 18,-7 33,-13 16,-7 32,-12 36,-12 5,0 29,-9 55,-21 53,-23 72,-28 136,-36 25,-3 47,-9 50,-12 7,-10 126,-33 195,-38 33,-3 75,-9 94,-13 44,-12 262,-10 331,2 30,5 71,9 90,9 19,0 50,4 70,9 20,5 65,11 100,14 89,6 201,26 225,41 11,7 35,16 54,20 19,4 41,14 49,21 7,8 26,14 41,14 16,0 34,6 40,13 6,8 37,20 68,27 32,7 63,17 70,23 7,5 16,6 21,3 4,-3 14,3 22,14 7,10 19,16 27,13 7,-3 13,0 13,5 0,6 16,14 35,18 20,3 42,16 50,27 8,12 15,16 15,9 0,-7 9,-3 20,8 21,21 68,45 83,42 4,-1 7,3 7,8 0,6 8,10 18,10 10,0 24,9 32,20 8,11 20,20 26,20 6,0 17,7 24,15 7,9 15,14 17,11 4,-4 34,20 84,66 16,16 34,28 39,28 6,0 10,7 10,15 0,8 6,15 14,15 8,0 24,12 36,28 12,15 25,27 28,27 4,0 6,3 5,8 -2,4 2,7 7,7 12,0 147,137 170,171 8,13 27,34 43,48 15,14 27,30 27,36 0,6 14,24 30,40 17,16 30,33 30,38 0,5 13,21 29,36 15,14 31,37 35,49 4,12 12,20 17,17 5,-4 9,0 9,7 0,8 9,31 20,53 11,22 20,45 20,52 0,7 4,13 8,13 5,0 13,10 19,22 27,57 66,135 79,158 7,14 14,35 14,48 0,12 5,22 10,22 6,0 10,11 10,24 0,14 4,27 8,30 5,3 15,31 22,63 7,32 18,67 24,78 6,11 11,27 12,35 1,8 9,37 19,63 9,27 18,61 20,75 1,15 3,27 4,27 1,0 3,32 3,72 1,54 -3,79 -17,100 l -19,28 -8,-25 c -5,-16 -6,-7 -3,25 7,68 -8,88 -60,83 -39,-3 -41,-5 -105,-113 -52,-88 -90,-135 -195,-243 -134,-138 -180,-176 -277,-230 -55,-31 -57,-31 -49,-9 5,13 7,34 4,48 -3,16 1,30 11,38 19,16 21,62 4,79 -7,7 -8,12 -2,12 5,0 9,12 9,28 2,105 18,310 30,377 7,44 14,94 14,110 0,17 0,57 0,90 1,64 -5,81 -75,214 -20,37 -24,40 -25,20 0,-14 -10,3 -23,43 -53,158 -191,267 -387,307 -37,8 -213,13 -512,14 -426,2 -456,3 -475,20 -18,16 -48,101 -103,287 -12,41 -36,99 -49,120 -5,8 -16,30 -25,48 -8,18 -19,31 -25,27 -6,-4 -7,1 -3,11 4,12 3,15 -5,10 -8,-5 -10,-2 -6,8 3,9 1,16 -5,16 -6,0 -19,17 -30,38 -23,44 -117,141 -175,181 -66,45 -110,56 -231,56 -124,-1 -148,-9 -254,-90 -93,-71 -143,-140 -193,-266 -68,-170 -76,-365 -27,-616 51,-260 146,-442 314,-601 97,-92 187,-148 331,-208 108,-45 272,-87 332,-85 23,1 32,-3 32,-14 0,-8 3,-14 8,-13 4,1 34,-2 67,-6 81,-11 175,-8 192,5 10,9 13,8 13,-1 0,-9 4,-9 13,-3 6,6 21,9 32,7 11,-1 23,2 27,9 4,7 8,8 8,2 0,-15 265,-10 314,6 23,7 45,16 51,21 5,4 19,8 32,8 13,0 23,5 23,10 0,6 13,10 29,10 34,0 93,19 103,34 4,6 8,-138 8,-321 0,-307 -1,-332 -17,-337 -10,-3 -71,-12 -136,-21 -489,-63 -1014,83 -1392,388 -79,64 -228,223 -305,326 -32,42 -58,99 -64,141 -2,13 -31,76 -36,80 -3,3 -17,34 -29,70 -13,36 -27,74 -31,85 -4,11 -13,38 -18,60 -6,22 -20,70 -31,106 -25,82 -39,177 -40,282 -1,27 -5,46 -9,43 -19,-12 -10,169 14,283 13,64 26,132 28,151 6,57 32,176 42,191 5,8 9,21 9,29 0,8 5,14 12,13 7,-2 10,3 7,11 -3,7 2,21 12,30 9,9 14,20 10,23 -3,3 4,21 15,40 11,18 18,33 14,33 -3,0 1,7 9,16 9,8 16,22 16,30 0,8 6,13 13,11 6,-1 11,4 10,10 -4,16 28,54 39,47 4,-3 5,2 2,10 -3,9 -2,16 4,16 5,0 12,8 16,18 13,41 44,75 58,66 5,-3 8,-2 7,3 -4,22 3,33 19,34 9,0 12,3 5,6 -17,6 7,32 24,26 7,-3 13,2 13,12 0,20 35,67 44,58 3,-3 6,1 6,10 0,9 4,17 10,17 12,0 60,48 60,60 0,6 4,10 8,10 5,0 37,27 72,61 57,54 150,122 188,137 9,3 24,14 34,24 10,10 23,16 28,13 4,-3 18,7 29,21 12,15 21,23 21,19 0,-4 7,-1 16,6 9,7 23,14 31,15 8,2 22,9 31,16 22,17 78,48 83,45 2,-1 3,0 2,2 -2,2 11,13 28,23 19,12 27,23 23,31 -6,9 -4,9 8,-1 11,-9 17,-9 20,-2 2,6 12,13 23,14 11,2 19,8 18,14 -2,6 8,9 21,6 14,-2 47,8 79,26 31,17 65,30 74,30 15,0 16,2 3,10 -13,8 -12,10 3,10 27,0 45,23 59,74 16,60 6,76 -58,98 -102,34 -372,48 -529,28 z m 144,-125 c -3,-2 -47,-19 -99,-37 -99,-35 -260,-125 -370,-207 -99,-75 -281,-260 -369,-378 -92,-122 -192,-316 -244,-473 -111,-330 -129,-733 -47,-1030 75,-272 138,-417 265,-611 70,-108 212,-277 301,-359 130,-120 348,-261 514,-333 185,-80 357,-127 560,-152 306,-37 587,-6 945,107 134,43 411,182 505,255 105,80 229,193 245,223 13,22 14,23 15,5 0,-25 -131,-295 -204,-419 C 4482,1035 4212,754 3965,601 3673,418 3403,324 2985,259 c -104,-17 -425,-17 -540,-1 -256,36 -546,123 -715,215 -152,83 -227,134 -385,261 -107,86 -212,192 -296,296 -128,160 -282,422 -343,584 -32,85 -101,336 -121,439 -35,186 -49,591 -25,747 30,192 92,454 121,508 16,30 29,61 29,68 0,18 32,84 41,84 7,0 21,38 33,90 3,14 21,42 41,63 19,21 36,46 37,55 2,33 4,37 12,51 7,10 5,12 -5,7 -8,-4 -3,1 11,12 13,11 29,18 35,15 5,-2 1,3 -9,11 -19,15 -19,16 7,16 15,0 28,6 28,13 4,44 18,66 39,62 24,-5 60,53 61,98 0,29 1,30 9,10 5,-13 14,-23 20,-23 10,0 39,56 45,90 2,8 4,17 5,20 0,3 5,-3 11,-13 13,-23 25,-15 49,33 13,25 25,37 34,34 8,-3 26,9 43,30 15,20 33,36 40,36 6,0 34,21 61,48 77,75 309,218 470,291 208,93 507,172 737,194 22,2 44,4 49,5 5,1 7,0 5,-3 z M 2446,3560 c 37,-18 79,-49 103,-76 49,-56 100,-185 137,-344 15,-63 37,-135 50,-160 35,-70 115,-162 164,-190 l 45,-25 h 495 c 451,0 500,-2 547,-18 161,-56 243,-205 243,-439 v -98 h -31 c -17,0 -78,-11 -137,-24 -59,-13 -123,-27 -142,-30 l -35,-6 -1,123 c -1,167 -27,257 -96,332 -49,54 -73,68 -145,84 -34,7 -43,6 -43,-4 0,-8 5,-17 11,-21 13,-7 3,-56 -14,-66 -8,-5 -6,-8 6,-8 27,0 111,-90 126,-135 7,-22 15,-103 18,-181 l 5,-140 -126,-23 c -69,-13 -154,-32 -189,-42 -167,-51 -581,-71 -747,-36 -164,36 -408,163 -496,260 -94,103 -203,333 -241,507 -25,119 -27,468 -2,493 9,9 22,38 28,65 12,50 66,113 159,190 54,44 83,52 171,47 57,-3 88,-11 137,-35 z M 4220,1720 v -289 l -27,-15 c -41,-20 -231,-82 -278,-90 l -40,-7 3,307 c 3,307 10,407 13,176 0,-69 5,-119 10,-116 13,8 11,-10 -2,-23 -13,-13 -2,-93 13,-93 6,0 9,19 6,45 -2,25 -1,45 2,45 3,0 4,41 3,91 -2,71 1,91 13,96 7,3 14,16 14,30 0,13 4,21 10,18 6,-3 10,-2 10,3 0,15 57,51 91,57 19,3 36,9 39,13 3,4 21,8 40,9 53,4 59,5 64,20 3,7 8,13 11,13 3,0 5,-130 5,-290 z m 137,-222 c -3,-8 -6,-5 -6,6 -1,11 2,17 5,13 3,-3 4,-12 1,-19 z"
       id="path1" />
    <path
       d="m 3890,1434 c 0,-43 4,-73 9,-70 5,4 12,0 14,-6 7,-16 6,110 0,135 -11,42 -23,11 -23,-59 z"
       id="path2" />
    <path
       d="m 3829,4397 c -63,-18 -110,-48 -131,-82 -22,-38 -9,-68 19,-47 77,55 180,73 268,48 149,-44 248,-246 186,-381 -24,-53 -90,-118 -149,-145 -65,-31 -158,-31 -230,0 -92,40 -171,146 -180,242 -2,26 -8,45 -13,42 -5,-3 -9,-12 -9,-20 0,-9 -7,-22 -15,-31 -24,-24 -2,-130 41,-193 41,-61 188,-158 241,-161 12,0 14,-2 5,-6 -19,-7 8,-25 85,-56 46,-18 73,-24 103,-20 27,4 40,2 40,-6 0,-7 9,-6 25,5 13,8 28,13 33,10 5,-3 20,3 33,13 13,10 30,16 38,13 8,-3 11,0 7,7 -4,6 -1,11 8,11 9,0 16,5 16,11 0,5 5,7 10,4 6,-3 10,4 10,17 0,17 3,19 9,9 7,-11 11,-8 16,10 5,13 15,29 24,36 9,6 16,15 16,20 1,4 9,24 20,43 14,26 20,58 21,128 1,50 -2,92 -7,92 -5,0 -9,9 -9,20 0,31 -78,139 -96,133 -6,-2 -21,19 -34,47 -65,139 -256,228 -401,187 z"
       id="path3" />
    <path
       d="m 3670,4239 c 0,-5 5,-7 10,-4 6,3 10,8 10,11 0,2 -4,4 -10,4 -5,0 -10,-5 -10,-11 z"
       id="path4" />
  </g>
  <text
     xml:space="preserve"
     transform="matrix(1.0133665,0,0,0.86641948,-42.223717,-58.00448)"
     id="text9"
     style="font-size:133.333px;text-align:start;writing-mode:lr-tb;direction:ltr;white-space:pre;shape-inside:url(#rect9);display:inline;fill:#000000"><tspan
       x="159.72852"
       y="597.61427"
       id="tspan2"><tspan
         style="font-family:'Tw Cen MT';-inkscape-font-specification:'Tw Cen MT'"
         id="tspan1">LUNA</tspan></tspan></text>
</svg>
