<svg width="698" height="778" viewBox="0 0 698 778" fill="none" xmlns="http://www.w3.org/2000/svg">
<path d="M154.237 245.165C154.237 224.981 132.22 212.298 114.701 222.39C97.1821 232.482 97.1821 257.849 114.701 267.941C132.22 278.033 154.237 265.349 154.237 245.165ZM158.586 317.283C158.586 297.099 136.569 284.416 119.05 294.508C101.531 304.6 101.531 329.967 119.05 340.059C136.569 350.151 158.586 337.467 158.586 317.283ZM332.532 77.3404C332.532 57.1563 310.515 44.4728 292.996 54.5648C275.477 64.6569 275.477 90.0239 292.996 100.116C310.515 110.208 332.532 97.5244 332.532 77.3404ZM401.624 101.595C401.624 81.4107 379.606 68.7272 362.088 78.8192C344.569 88.9112 344.569 114.278 362.088 124.37C379.606 134.462 401.624 121.779 401.624 101.595ZM174.711 393.748C174.711 373.564 152.694 360.881 135.175 370.973C117.656 381.065 117.656 406.432 135.175 416.524C152.694 426.616 174.711 413.932 174.711 393.748ZM210.842 462.275C210.842 442.091 188.825 429.408 171.306 439.5C153.787 449.592 153.787 474.959 171.306 485.051C188.825 495.143 210.842 482.459 210.842 462.275ZM492.585 558.104C492.585 537.92 470.568 525.236 453.049 535.328C435.53 545.42 435.53 570.787 453.049 580.879C470.568 590.971 492.585 578.288 492.585 558.104ZM540.404 501.545C540.404 481.361 518.386 468.678 500.867 478.77C483.349 488.862 483.349 514.229 500.867 524.321C518.386 534.413 540.404 521.729 540.404 501.545ZM416.529 680.193C556.272 645.587 670.522 523.218 674.596 361.889C731.919 260.741 675.796 129.323 561.409 101.647C474.854 25.459 350.838 -6.13873 233.33 32.1825C203.794 0.235549 153.959 -11.3543 111.262 13.2421C63.3511 40.8419 50.4878 98.991 72.657 143.006C-41.2572 285.817 -21.2123 505.325 132.721 621.18C124.655 793.203 357.513 839.42 416.529 680.193ZM245.088 47.7529C344.191 17.636 447.571 39.5654 525.89 96.6555C398.597 91.1541 304.276 220.975 354.189 342.147C405.042 465.599 568.688 490.446 654.139 390.929C638.517 525.111 541.037 626.306 421.974 659.779C450.017 471.277 185.262 413.904 135.795 600.278C-0.598536 490.634 -18.1354 292.031 83.1867 159.5C164.528 254.536 304.88 152.539 245.088 47.7529Z" fill="white"/>
</svg>
