<svg width="767" height="768" viewBox="0 0 767 768" fill="none" xmlns="http://www.w3.org/2000/svg">
<path d="M555.78 266.7L555.5 266.58C555.34 266.52 555.18 266.46 555.04 266.32C554.811 266.073 554.641 265.778 554.544 265.455C554.446 265.133 554.425 264.792 554.48 264.46L569.94 169.94L642.44 242.46L567.04 274.54C566.83 274.624 566.606 274.665 566.38 274.66H566.08C565.98 274.6 565.88 274.52 565.68 274.32C562.874 271.196 559.518 268.613 555.78 266.7ZM660.94 260.94L738.46 338.46C754.56 354.58 762.62 362.62 765.56 371.94C766 373.32 766.36 374.7 766.64 376.12L581.38 297.66C581.28 297.619 581.18 297.579 581.08 297.54C580.34 297.24 579.48 296.9 579.48 296.14C579.48 295.38 580.36 295.02 581.1 294.72L581.34 294.62L660.94 260.94ZM763.48 401C759.48 408.52 751.68 416.32 738.48 429.54L651.08 516.92L538.04 493.38L537.44 493.26C536.44 493.1 535.38 492.92 535.38 492.02C534.951 487.357 533.566 482.832 531.312 478.727C529.059 474.622 525.984 471.025 522.28 468.16C521.82 467.7 521.94 466.98 522.08 466.32C522.08 466.22 522.08 466.12 522.12 466.04L543.38 335.52L543.46 335.08C543.58 334.08 543.76 332.92 544.66 332.92C549.216 332.353 553.614 330.885 557.597 328.602C561.58 326.319 565.069 323.265 567.86 319.62C568.04 319.42 568.16 319.2 568.4 319.08C569.04 318.78 569.8 319.08 570.46 319.36L763.48 401ZM630.98 537.02L487.26 680.74L511.86 529.54L511.9 529.34C511.92 529.14 511.96 528.94 512.02 528.76C512.22 528.28 512.74 528.08 513.24 527.88L513.48 527.78C518.866 525.482 523.63 521.938 527.38 517.44C527.86 516.88 528.44 516.34 529.18 516.24C529.372 516.209 529.568 516.209 529.76 516.24L630.96 537.04L630.98 537.02ZM456.84 711.16L440.64 727.36L261.54 468.52C261.475 468.425 261.409 468.332 261.34 468.24C261.06 467.86 260.76 467.48 260.82 467.04C260.84 466.72 261.04 466.44 261.26 466.2L261.46 465.94C262 465.14 262.46 464.34 262.96 463.48L263.36 462.78L263.42 462.72C263.7 462.24 263.96 461.78 264.44 461.52C264.86 461.32 265.44 461.4 265.9 461.5L464.32 502.42C464.875 502.506 465.398 502.734 465.84 503.08C466.1 503.34 466.16 503.62 466.22 503.94C467.604 509.177 470.18 514.022 473.746 518.099C477.313 522.176 481.774 525.372 486.78 527.44C487.34 527.72 487.1 528.34 486.84 529C486.71 529.289 486.61 529.591 486.54 529.9C484.04 545.1 462.6 675.86 456.84 711.16ZM423 744.98C411.06 756.8 404.02 763.06 396.06 765.58C388.212 768.062 379.788 768.062 371.94 765.58C362.62 762.62 354.56 754.58 338.46 738.46L158.6 558.6L205.58 485.74C205.8 485.38 206.02 485.06 206.38 484.8C206.88 484.44 207.6 484.6 208.2 484.8C218.983 488.053 230.561 487.467 240.96 483.14C241.5 482.94 242.04 482.8 242.46 483.18C242.67 483.372 242.858 483.586 243.02 483.82L423 744.98ZM141.26 541.26L100 500L181.48 465.24C181.688 465.149 181.913 465.102 182.14 465.1C182.82 465.1 183.22 465.78 183.58 466.4C184.399 467.66 185.266 468.887 186.18 470.08L186.44 470.4C186.68 470.74 186.52 471.08 186.28 471.4L141.26 541.26ZM81.74 481.74L29.54 429.54C20.66 420.66 14.22 414.22 9.73999 408.68L168.46 441.6C168.659 441.637 168.859 441.67 169.06 441.7C170.04 441.86 171.12 442.04 171.12 442.96C171.12 443.96 169.94 444.42 168.94 444.8L168.48 445L81.74 481.74ZM0.619995 381.84C0.800878 378.477 1.40566 375.151 2.42 371.94C5.38 362.62 13.42 354.58 29.54 338.46L96.34 271.66C127.097 316.298 157.937 360.878 188.86 405.4C189.4 406.12 190 406.92 189.38 407.52C186.46 410.74 183.54 414.26 181.48 418.08C181.257 418.571 180.913 418.998 180.48 419.32C180.22 419.48 179.94 419.42 179.64 419.36H179.6L0.619995 381.84ZM114.22 253.78L204.04 163.96C212.48 167.66 243.2 180.64 270.68 192.24C291.48 201.04 310.44 209.04 316.4 211.64C317 211.88 317.54 212.12 317.8 212.72C317.96 213.08 317.88 213.54 317.8 213.92C316.378 220.403 316.59 227.139 318.415 233.52C320.241 239.902 323.624 245.73 328.26 250.48C328.86 251.08 328.26 251.94 327.74 252.68L327.46 253.1L236.26 394.36C236.02 394.76 235.8 395.1 235.4 395.36C234.92 395.66 234.24 395.52 233.68 395.38C230.133 394.451 226.486 393.954 222.82 393.9C219.54 393.9 215.98 394.5 212.38 395.16C211.98 395.22 211.6 395.3 211.28 395.06C210.927 394.771 210.623 394.427 210.38 394.04L114.22 253.78ZM222.18 145.82L338.46 29.54C354.56 13.44 362.62 5.37997 371.94 2.43997C379.788 -0.0418377 388.212 -0.0418377 396.06 2.43997C405.38 5.37997 413.44 13.44 429.54 29.54L454.74 54.74L372.04 182.82C371.835 183.193 371.556 183.52 371.22 183.78C370.72 184.12 370.02 183.98 369.42 183.78C362.9 181.801 355.996 181.441 349.305 182.73C342.614 184.02 336.338 186.92 331.02 191.18C330.48 191.74 329.68 191.42 329 191.12C318.2 186.42 234.2 150.92 222.18 145.82ZM472.3 72.3L548.66 148.66L530.26 262.62V262.92C530.244 263.18 530.19 263.436 530.1 263.68C529.9 264.08 529.5 264.16 529.1 264.28C525.166 265.472 521.461 267.317 518.14 269.74C517.997 269.842 517.863 269.955 517.74 270.08C517.52 270.32 517.3 270.54 516.94 270.58C516.647 270.589 516.355 270.541 516.08 270.44L399.72 221L399.5 220.9C398.76 220.6 397.88 220.24 397.88 219.48C397.196 212.996 395.078 206.745 391.68 201.18C391.12 200.26 390.5 199.3 390.98 198.36L472.3 72.3ZM393.66 244.42L502.74 290.62C503.34 290.9 504 291.16 504.26 291.78C504.364 292.153 504.364 292.547 504.26 292.92C503.94 294.52 503.66 296.34 503.66 298.18V301.24C503.66 302 502.88 302.32 502.16 302.62L501.94 302.7C484.66 310.08 259.34 406.16 259 406.16C258.66 406.16 258.3 406.16 257.96 405.82C257.36 405.22 257.96 404.38 258.5 403.62C258.595 403.488 258.689 403.355 258.78 403.22L348.42 264.42L348.58 264.18C349.1 263.34 349.7 262.4 350.66 262.4L351.56 262.54C353.6 262.82 355.4 263.08 357.22 263.08C370.82 263.08 383.42 256.46 391.02 245.14C391.201 244.838 391.431 244.567 391.7 244.34C392.24 243.94 393.04 244.14 393.66 244.42ZM268.74 428.12L514.34 323.38C514.34 323.38 514.7 323.38 515.04 323.72C516.38 325.06 517.52 325.96 518.62 326.8L519.16 327.14C519.66 327.42 520.16 327.74 520.2 328.26C520.2 328.46 520.2 328.58 520.16 328.76L499.12 458L499.04 458.52C498.9 459.52 498.76 460.66 497.82 460.66C492.211 461.039 486.778 462.779 481.993 465.731C477.208 468.683 473.215 472.757 470.36 477.6L470.26 477.76C469.98 478.22 469.72 478.66 469.26 478.9C468.84 479.1 468.3 479.02 467.86 478.92L272 438.52C271.8 438.48 268.96 428.14 268.74 428.12Z" fill="url(#paint0_radial_174_66)"/>
<defs>
<radialGradient id="paint0_radial_174_66" cx="0" cy="0" r="1" gradientUnits="userSpaceOnUse" gradientTransform="translate(-25.0993 373.191) rotate(90) scale(76601.9 88439.8)">
<stop stop-color="white"/>
<stop offset="1" stop-color="#A8A8A8"/>
</radialGradient>
</defs>
</svg>
