<svg width="757" height="803" viewBox="0 0 757 803" fill="none" xmlns="http://www.w3.org/2000/svg">
<path d="M378.315 0.59375C366.806 0.59375 355.3 3.41679 345.368 9.09241L32.8879 189.473C12.7079 201.14 0.125 223.229 0.125 246.562V573.822C0.125 597.47 12.7079 619.244 32.8879 630.911L114.918 678.208C154.648 697.757 168.815 697.73 186.788 697.73C245.751 697.73 279.472 662.105 279.472 600.303V262.636C279.472 257.591 275.403 253.46 270.358 253.46H230.944C225.583 253.46 221.768 257.591 221.768 262.636V599.995C221.768 627.743 193.109 654.852 146.758 631.835L60.9705 582.321C57.8173 580.744 55.9205 577.29 55.9205 573.822V246.87C55.9205 243.086 57.8173 239.894 60.9705 238.002L373.45 57.6826C376.288 55.7907 380.089 55.7907 383.242 57.6826L695.722 238.002C698.875 239.894 700.772 243.094 700.772 246.562V573.822C700.772 577.29 698.867 580.744 696.03 582.321L383.242 763.01C380.404 764.586 376.288 764.586 373.45 763.01L293.021 715.405C290.814 713.828 287.715 713.528 285.507 714.789C263.12 727.401 259.021 728.968 238.211 736.22C233.166 737.797 225.278 740.94 241.043 749.769L345.368 811.6C355.458 817.275 366.841 820.406 378.192 820.406C389.859 820.406 401.173 817.275 411.263 811.6L724.112 630.911C744.292 619.244 756.875 597.47 756.875 573.822V246.87C756.875 223.222 744.292 201.448 724.112 189.781L411.263 9.09241C401.331 3.41679 389.824 0.59375 378.315 0.59375ZM462.378 253.029C373.145 253.029 319.872 290.841 319.872 353.904C319.872 422.327 372.795 441.216 458.56 449.729C561.036 459.819 568.919 474.999 568.919 495.179C568.919 529.863 540.903 544.693 475.003 544.693C392.076 544.693 373.775 523.852 367.784 482.862C367.154 478.447 363.392 475.287 358.978 475.287H318.27C313.225 475.287 309.464 479.425 309.464 484.155C309.464 536.812 338.157 599.503 475.003 599.503C574.011 599.503 630.75 560.453 630.75 492.346C630.75 424.869 585.022 406.862 489.167 393.934C391.736 381.321 381.949 374.697 381.949 351.995C381.949 333.076 390.487 308.208 462.378 308.208C526.386 308.208 550.338 322.038 560.113 365.235C561.059 369.334 564.505 372.502 568.919 372.502H609.627C612.149 372.502 614.324 371.253 616.216 369.362C617.793 367.785 618.748 365.24 618.433 362.403C612.127 287.989 562.647 253.029 462.378 253.029Z" fill="white"/>
</svg>
