<svg width="715" height="715" viewBox="0 0 715 715" fill="none" xmlns="http://www.w3.org/2000/svg">
<path d="M510.272 0C482.491 0.206648 454.872 4.24679 428.196 12.006L426.319 12.6019C409.493 9.6283 392.459 7.98467 375.375 7.68625C340.281 7.09042 310.131 15.6108 285.821 29.7917C261.869 21.4798 212.176 7.15 159.803 10.01C123.338 12.006 83.536 23.0885 54.0423 54.2208C24.6379 85.3531 9.08665 133.526 12.3637 199.068C13.2575 217.151 18.4114 246.645 26.9617 284.838C35.5119 323.031 47.5179 367.748 62.5031 408.533C77.4883 449.348 93.9035 485.991 119.554 510.897C132.365 523.38 150.001 533.867 170.796 533.003C185.394 532.407 198.591 526.002 209.972 516.558C215.513 523.857 221.442 527.044 226.834 529.994C233.626 533.718 240.24 536.25 247.092 537.918C259.396 540.987 280.459 545.098 305.126 540.898C313.528 539.497 322.376 536.756 331.194 532.854C331.522 542.685 331.909 552.308 332.296 562.05C333.518 592.914 334.292 621.424 343.558 646.42C345.047 650.501 349.129 671.534 365.216 690.094C381.304 708.684 412.823 720.273 448.722 712.587C474.045 707.165 506.25 697.393 527.64 666.946C548.793 636.856 558.326 593.688 560.203 523.678C560.679 519.894 561.245 516.677 561.841 513.668L566.876 514.115H567.472C594.493 515.336 623.808 511.493 648.297 500.113C669.985 490.073 686.4 479.914 698.347 461.89C701.326 457.421 704.603 452.029 705.497 442.734C706.39 433.439 701.058 418.901 692.21 412.198C674.484 398.732 663.341 403.856 651.395 406.329C639.627 408.93 627.634 410.387 615.585 410.678C650.025 352.674 674.722 291.065 688.813 236.546C697.155 204.371 701.832 174.698 702.22 148.75C702.607 122.801 700.492 99.8319 684.94 79.9608C636.35 17.875 568.038 0.715 515.187 0.119167C513.549 0.089375 511.91 0.0595833 510.272 0.089375V0ZM508.872 19.0667C558.862 18.59 622.735 32.6219 668.585 91.2221C678.893 104.39 681.961 123.635 681.604 147.35C681.216 171.034 676.837 199.396 668.823 230.468C653.272 290.648 623.897 360.807 582.517 423.757C583.978 424.795 585.558 425.655 587.224 426.319C595.863 429.894 615.556 432.962 654.851 424.889C664.742 422.803 671.981 421.403 679.489 427.123C681.313 428.67 682.755 430.617 683.7 432.814C684.646 435.011 685.071 437.397 684.94 439.785C684.539 443.401 683.205 446.85 681.068 449.795C673.471 461.205 658.485 472.019 639.27 480.927C622.259 488.851 597.859 492.993 576.231 493.231C565.386 493.35 555.376 492.516 546.886 489.864L546.35 489.656C543.073 521.235 535.535 583.589 530.62 612.04C526.687 634.98 519.805 653.212 506.667 666.857C493.559 680.501 474.999 688.724 450.033 694.086C419.109 700.73 396.557 693.58 382.019 681.335C367.51 669.121 360.867 652.914 356.875 642.994C354.134 636.141 352.704 627.264 351.333 615.406C349.963 603.549 348.95 589.041 348.265 572.685C347.352 547.642 347.054 522.579 347.371 497.521C334.453 509.352 318.401 517.213 301.134 520.162C280.608 523.648 262.286 520.222 251.352 517.481C245.963 516.128 240.76 514.116 235.861 511.493C230.796 508.782 225.97 505.714 222.752 499.666C220.862 496.202 220.26 492.181 221.054 488.315C222.061 484.397 224.347 480.927 227.549 478.454C233.448 473.658 241.253 470.976 253.021 468.534C274.441 464.124 281.919 461.115 286.477 457.511C290.35 454.412 294.729 448.156 302.475 438.98C302.438 438.574 302.408 438.166 302.386 437.759C288.523 437.369 274.948 433.715 262.763 427.093C258.294 431.8 235.474 455.932 207.648 489.418C195.94 503.42 183.01 511.463 169.366 512.029C155.721 512.625 143.387 505.743 132.901 495.584C111.957 475.237 95.2441 440.231 80.676 400.668C66.1377 361.105 54.3104 317.043 45.9092 279.505C37.4781 241.968 32.5029 211.7 31.7879 197.102C28.6598 135.075 43.1683 93.2777 68.0444 66.9121C92.9502 40.5465 127.091 30.5663 160.369 28.6596C220.101 25.2335 276.824 46.0579 288.294 50.5267C310.4 35.5117 338.88 26.1571 374.452 26.7529C391.339 26.9898 408.143 29.169 424.531 33.2475L425.127 32.9794C432.341 30.4437 439.691 28.3152 447.143 26.604C467.378 21.8836 488.066 19.3763 508.842 19.1263L508.872 19.0667ZM513.4 39.0271H509.05C491.982 39.2651 474.979 41.181 458.285 44.7471C495.406 61.1921 523.44 86.515 543.192 111.778C556.912 129.27 568.253 148.505 576.916 168.978C580.193 176.843 582.397 183.487 583.649 188.641C584.274 191.233 584.691 193.408 584.84 195.672C584.9 196.804 584.96 197.966 584.483 199.962C584.483 200.051 584.334 200.26 584.304 200.349C585.198 226.446 578.733 244.143 577.959 269.049C577.363 287.102 581.98 308.314 583.113 331.462C584.185 353.21 581.563 377.103 567.442 400.549C568.634 401.979 569.706 403.409 570.838 404.839C608.197 346 635.129 280.906 649.488 225.404C657.175 195.523 661.256 168.442 661.614 146.992C661.911 125.542 657.919 109.991 652.825 103.496C612.845 52.3738 558.743 39.3846 513.4 39.0271ZM370.698 46.6538C335.484 46.7431 310.221 57.3788 291.065 73.3173C271.313 89.7921 258.056 112.344 249.356 135.433C239.019 162.841 235.474 189.356 234.073 207.35L234.461 207.112C245.096 201.153 259.069 195.195 274.024 191.739C288.979 188.313 305.097 187.241 319.695 192.901C334.292 198.561 346.358 211.878 350.737 232.077C371.711 329.109 344.213 365.186 334.084 392.416C330.241 402.285 326.949 412.361 324.223 422.595C325.504 422.297 326.785 421.939 328.066 421.82C335.216 421.224 340.817 423.608 344.154 425.038C354.342 429.268 361.343 438.146 365.127 448.275C366.11 450.927 366.825 453.787 367.242 456.736C367.682 457.947 367.885 459.232 367.838 460.52C366.708 497.634 366.838 534.775 368.225 571.881C368.91 587.909 369.923 602.03 371.204 613.172C372.485 624.284 374.303 632.745 375.465 635.605C379.278 645.139 384.849 657.621 394.919 666.112C404.988 674.573 419.437 680.233 445.832 674.573C468.712 669.657 482.834 662.835 492.278 653.033C501.692 643.232 507.322 629.587 510.927 608.703C516.32 577.422 527.164 486.706 528.475 469.636C527.879 456.766 529.785 446.875 533.897 439.338C538.127 431.592 544.681 426.855 550.342 424.293C553.172 423.012 555.823 422.148 557.998 421.522C555.696 418.214 553.281 414.984 550.759 411.84C542.598 401.942 535.915 390.914 530.917 379.099C528.524 374.22 525.971 369.421 523.261 364.71C519.299 357.56 514.294 348.622 509.05 338.582C498.564 318.473 487.154 294.103 481.225 270.359C475.326 246.645 474.462 222.097 489.596 204.788C503.003 189.415 526.538 183.04 561.871 186.615C560.828 183.487 560.203 180.895 558.445 176.724C550.457 157.922 540.03 140.253 527.432 124.172C497.491 85.8894 449.02 47.9348 374.124 46.7133H370.698V46.6538ZM172.822 48.2029C169.038 48.2029 165.255 48.3221 161.501 48.5306C131.411 50.2585 102.96 58.9875 82.6125 80.5567C62.235 102.126 48.8287 137.489 51.7483 196.029C52.3144 207.112 57.1406 238.155 65.4227 275.037C73.675 311.919 85.3831 355.325 99.4448 393.667C113.536 432.009 130.607 465.376 146.814 481.165C154.976 489.06 162.067 492.248 168.502 491.98C174.967 491.682 182.742 487.958 192.246 476.548C209.573 455.647 227.556 435.299 246.169 415.534C232.962 404.068 222.855 389.461 216.779 373.06C210.703 356.66 208.854 338.994 211.402 321.69C214.47 299.674 214.887 279.088 214.53 262.822C214.172 246.973 213.04 236.427 213.04 229.843C213.035 229.654 213.035 229.465 213.04 229.277V229.128L213.011 228.949C212.993 194.653 218.961 160.587 230.647 128.343C238.989 106.178 251.412 83.655 270.032 65.4225C251.74 59.4046 219.267 50.2288 184.113 48.5008C180.342 48.3072 176.597 48.2079 172.822 48.2029ZM542.179 205.563C521.95 205.831 510.6 211.044 504.641 217.866C496.21 227.549 495.406 244.53 500.649 265.444C505.863 286.387 516.647 309.804 526.776 329.258C531.841 338.999 536.757 347.758 540.719 354.878C544.711 362.028 547.631 367.093 549.418 371.413C551.057 375.405 552.874 378.92 554.721 382.197C562.556 365.663 563.956 349.426 563.152 332.505C562.109 311.561 557.253 290.141 557.968 268.453C558.773 243.1 563.778 226.595 564.225 206.993C556.914 206.046 549.55 205.568 542.179 205.563ZM296.874 208.989C290.694 209.046 284.54 209.786 278.522 211.193C266.529 214.107 254.978 218.605 244.173 224.57C240.518 226.53 237.039 228.803 233.775 231.362L233.12 231.958C233.299 236.308 234.163 246.854 234.52 262.375C234.878 279.356 234.461 301.015 231.184 324.461C224.063 375.405 261.035 417.59 304.471 417.649C307.003 407.193 311.174 396.587 315.345 385.415C327.44 352.823 351.244 329.049 331.194 236.278C327.917 221.084 321.422 214.947 312.485 211.491C307.476 209.719 302.186 208.871 296.874 208.989ZM532.735 215.066H534.224C536.191 215.126 538.008 215.334 539.587 215.721C541.196 216.079 542.566 216.615 543.698 217.36C544.279 217.72 544.778 218.197 545.163 218.762C545.548 219.326 545.81 219.965 545.933 220.637L545.903 220.875C545.961 222.29 545.598 223.689 544.86 224.897C543.981 226.532 542.878 228.037 541.583 229.366C538.561 232.694 534.513 234.917 530.083 235.682C525.773 236.203 521.421 235.11 517.869 232.613C516.414 231.635 515.11 230.451 513.996 229.098C513.032 228.035 512.382 226.725 512.119 225.314C512.057 224.627 512.136 223.934 512.351 223.278C512.566 222.623 512.913 222.018 513.37 221.501C514.348 220.39 515.532 219.48 516.856 218.82C519.716 217.211 523.589 216.019 527.968 215.364C529.607 215.126 531.215 215.006 532.735 214.977V215.066ZM299.764 220.071C301.343 220.071 303.011 220.22 304.709 220.458C309.267 221.084 313.319 222.305 316.417 224.093C317.929 224.882 319.274 225.954 320.38 227.251C320.982 227.939 321.436 228.744 321.713 229.615C321.989 230.487 322.083 231.406 321.989 232.315C321.702 234.028 320.926 235.622 319.754 236.903C318.535 238.4 317.099 239.705 315.494 240.776C311.619 243.521 306.86 244.722 302.147 244.143C297.331 243.351 292.922 240.958 289.635 237.35C288.236 235.898 287.052 234.252 286.119 232.464C285.137 230.891 284.708 229.036 284.898 227.191C285.345 223.974 287.996 222.305 290.588 221.382C293.54 220.439 296.639 220.035 299.734 220.19L299.764 220.071ZM569.676 438.831L569.587 438.861C565.208 440.44 561.603 441.095 558.564 442.436C555.491 443.619 552.958 445.887 551.444 448.811C549.567 452.238 547.958 458.315 548.435 468.653C549.783 469.581 551.272 470.285 552.844 470.738C557.939 472.287 566.489 473.3 576.022 473.151C595.029 472.943 618.416 468.504 630.839 462.724C641.03 457.99 650.491 451.82 658.932 444.402C617.433 452.982 593.957 450.688 579.567 444.76C575.994 443.273 572.661 441.295 569.676 438.831ZM330.42 441.632H329.794C328.215 441.781 325.921 442.317 321.482 447.233C311.115 458.851 307.48 466.15 298.93 472.973C290.38 479.765 279.267 483.4 257.072 487.958C250.042 489.388 246.02 490.967 243.339 492.248C244.202 492.963 244.113 493.141 245.424 493.827C248.671 495.614 252.842 497.193 256.209 498.057C265.742 500.44 281.412 503.211 297.768 500.44C314.124 497.64 331.135 489.805 345.643 469.457C348.146 465.942 348.414 460.758 346.358 455.187C344.273 449.616 339.715 444.819 336.497 443.479C334.583 442.555 332.529 441.951 330.42 441.691V441.632Z" fill="white"/>
</svg>
