<svg width="808" height="719" viewBox="0 0 808 719" fill="none" xmlns="http://www.w3.org/2000/svg">
<path d="M663.864 232.803C655.488 229.921 646.809 227.194 637.872 224.614C639.341 218.62 640.689 212.704 641.888 206.889C661.563 111.397 648.698 34.4686 604.77 9.14042C562.649 -15.146 493.762 10.1765 424.19 70.7136C417.5 76.5348 410.791 82.698 404.085 89.1572C399.617 84.8836 395.156 80.7538 390.706 76.8035C317.793 12.0733 244.708 -15.2049 200.823 10.1966C158.742 34.5534 146.28 106.874 163.991 197.372C165.701 206.113 167.7 215.04 169.961 224.116C159.617 227.051 149.631 230.181 140.077 233.51C54.5936 263.309 0 310.011 0 358.453C0 408.484 58.6062 458.667 147.644 489.095C154.67 491.496 161.961 493.766 169.475 495.922C167.036 505.738 164.915 515.357 163.134 524.739C146.247 613.666 159.435 684.278 201.404 708.481C244.754 733.476 317.508 707.784 388.352 645.868C393.951 640.973 399.571 635.783 405.2 630.343C412.497 637.368 419.782 644.017 427.029 650.253C495.649 709.295 563.423 733.136 605.354 708.865C648.661 683.798 662.736 607.944 644.463 515.656C643.067 508.607 641.443 501.407 639.62 494.078C644.729 492.568 649.745 491.009 654.636 489.388C747.199 458.724 807.423 409.153 807.423 358.453C807.423 309.836 751.069 262.819 663.864 232.803ZM643.788 456.652C639.372 458.113 634.842 459.526 630.226 460.895C620.008 428.55 606.216 394.156 589.339 358.621C605.444 323.932 618.703 289.978 628.635 257.843C636.895 260.233 644.911 262.753 652.636 265.413C727.354 291.131 772.93 329.154 772.93 358.453C772.93 389.661 723.709 430.174 643.788 456.652ZM610.626 522.354C618.705 563.162 619.86 600.058 614.507 628.901C609.699 654.819 600.028 672.098 588.07 679.019C562.624 693.745 508.209 674.603 449.524 624.11C442.796 618.322 436.02 612.142 429.222 605.601C451.973 580.722 474.711 551.8 496.903 519.679C535.936 516.216 572.813 510.554 606.255 502.825C607.902 509.468 609.365 515.983 610.626 522.354ZM275.269 676.474C250.408 685.252 230.608 685.504 218.639 678.604C193.17 663.916 182.582 607.222 197.025 531.171C198.679 522.461 200.648 513.515 202.917 504.37C235.993 511.683 272.6 516.945 311.726 520.116C334.068 551.547 357.462 580.438 381.038 605.734C375.887 610.706 370.756 615.44 365.654 619.9C334.328 647.279 302.935 666.704 275.269 676.474ZM158.799 456.461C119.429 443.006 86.9148 425.52 64.6281 406.438C44.6021 389.291 34.4914 372.267 34.4914 358.453C34.4914 329.057 78.3246 291.562 151.431 266.077C160.301 262.984 169.587 260.07 179.223 257.333C189.327 290.194 202.581 324.55 218.575 359.292C202.374 394.55 188.932 429.454 178.729 462.7C171.859 460.726 165.204 458.648 158.799 456.461ZM197.841 190.749C182.667 113.212 192.745 54.7214 218.104 40.0441C245.116 24.4083 304.848 46.7016 367.803 102.593C371.827 106.165 375.867 109.904 379.919 113.773C356.459 138.959 333.279 167.632 311.136 198.878C273.162 202.397 236.812 208.05 203.391 215.62C201.29 207.169 199.429 198.866 197.841 190.749ZM546.127 276.736C538.137 262.938 529.935 249.467 521.574 236.363C547.335 239.619 572.018 243.942 595.197 249.231C588.238 271.53 579.565 294.845 569.355 318.746C562.031 304.844 554.284 290.826 546.127 276.736ZM404.097 138.42C420.007 155.653 435.939 174.895 451.611 195.771C435.819 195.025 419.831 194.637 403.712 194.637C387.744 194.637 371.875 195.017 356.18 195.75C371.867 175.067 387.938 155.852 404.097 138.42ZM261.157 276.975C253.176 290.812 245.573 304.753 238.364 318.721C228.32 294.903 219.727 271.481 212.707 248.866C235.744 243.712 260.31 239.497 285.908 236.303C277.429 249.527 269.159 263.101 261.157 276.975ZM286.646 483.064C260.198 480.113 235.263 476.116 212.232 471.104C219.363 448.085 228.146 424.163 238.403 399.832C245.631 413.79 253.264 427.737 261.293 441.604C269.473 455.731 277.948 469.569 286.646 483.064ZM405.051 580.918C388.703 563.282 372.396 543.773 356.471 522.789C371.931 523.395 387.692 523.706 403.712 523.706C420.169 523.706 436.438 523.335 452.451 522.622C436.728 543.984 420.853 563.523 405.051 580.918ZM569.684 398.592C580.476 423.186 589.573 446.982 596.797 469.609C573.386 474.949 548.11 479.25 521.479 482.446C529.861 469.165 538.134 455.462 546.265 441.367C554.49 427.106 562.3 412.824 569.684 398.592ZM516.387 424.137C503.765 446.018 490.807 466.906 477.653 486.623C453.693 488.336 428.94 489.218 403.712 489.218C378.585 489.218 354.144 488.438 330.608 486.91C316.923 466.935 303.684 445.985 291.143 424.326C278.635 402.725 267.126 380.942 256.694 359.281C267.123 337.569 278.605 315.762 291.041 294.2C303.51 272.581 316.63 251.737 330.189 231.887C354.201 230.072 378.825 229.125 403.71 229.125C428.707 229.125 453.364 230.079 477.37 231.91C490.721 251.615 503.755 272.395 516.273 294.017C528.934 315.882 540.563 337.545 551.081 358.791C540.595 380.401 528.991 402.282 516.387 424.137ZM587.541 39.0181C614.579 54.6079 625.094 117.482 608.106 199.928C607.022 205.189 605.802 210.548 604.477 215.978C570.979 208.25 534.603 202.499 496.519 198.927C474.333 167.338 451.342 138.62 428.265 113.757C434.469 107.789 440.665 102.099 446.835 96.7287C506.444 44.8609 562.157 24.3825 587.541 39.0181ZM403.712 286.364C443.531 286.364 475.812 318.639 475.812 358.453C475.812 398.266 443.531 430.542 403.712 430.542C363.892 430.542 331.611 398.266 331.611 358.453C331.611 318.639 363.892 286.364 403.712 286.364Z" fill="white"/>
</svg>
