<svg width="1024" height="767" viewBox="0 0 1024 767" fill="none" xmlns="http://www.w3.org/2000/svg">
<g clip-path="url(#clip0_174_61)">
<path d="M881.186 440.847C845.482 441.034 814.452 449.627 788.469 462.329C778.935 443.463 769.402 426.651 767.72 414.322C765.85 399.938 763.607 391.159 765.85 373.973C768.093 356.788 778.188 332.317 778.001 330.449C777.814 328.581 775.758 319.801 755.195 319.614C734.633 319.428 716.875 323.537 714.819 328.954C712.762 334.372 708.837 346.7 706.22 359.403C702.668 378.083 665.095 444.77 643.598 479.702C636.682 466.065 630.7 454.11 629.392 444.583C627.522 430.2 625.279 421.42 627.522 404.235C629.766 387.049 639.86 362.578 639.673 360.71C639.486 358.842 637.43 350.063 616.867 349.876C596.305 349.689 578.547 353.799 576.491 359.216C574.434 364.633 572.191 377.336 567.892 389.664C563.592 401.993 513.682 513.326 500.597 542.093C493.868 556.85 488.073 568.619 483.961 576.651C483.961 576.651 483.774 577.211 483.213 578.145C479.661 585.057 477.605 588.793 477.605 588.793C477.605 588.793 477.605 588.793 477.605 588.98C474.801 594.023 471.81 598.693 470.315 598.693C469.193 598.693 467.137 585.244 470.689 566.937C478.166 528.27 495.924 468.12 495.737 466.065C495.737 464.945 499.102 454.484 484.147 449.067C469.567 443.649 464.333 452.616 463.024 452.616C461.716 452.616 460.781 455.791 460.781 455.791C460.781 455.791 477.044 388.17 429.751 388.17C400.216 388.17 359.465 420.486 339.277 449.627C326.566 456.539 299.461 471.296 270.487 487.174C259.458 493.338 248.055 499.503 237.4 505.293C236.653 504.546 235.905 503.612 235.157 502.865C177.957 441.781 72.1547 398.631 76.6411 316.626C78.3234 286.738 88.6045 208.282 279.833 113.014C437.228 35.4919 562.471 56.9739 584.155 104.608C615.185 172.603 517.047 298.88 354.418 317.186C292.358 324.098 259.832 300.187 251.607 291.221C243.008 281.881 241.7 281.32 238.522 283.188C233.288 285.99 236.653 294.396 238.522 299.253C243.382 311.956 263.384 334.372 297.218 345.393C327.127 355.106 399.842 360.524 487.886 326.526C586.398 288.419 663.413 182.503 640.794 93.7735C618.176 3.73595 468.632 -25.9652 327.127 24.2839C243.008 54.1719 151.787 101.245 86.1745 162.516C8.22483 235.368 -4.11251 298.693 0.934587 325.218C19.0668 419.366 148.983 480.636 200.949 526.028C198.332 527.523 195.902 528.83 193.846 529.951C167.863 542.84 68.79 594.584 44.1153 649.316C16.0759 711.334 48.6016 755.792 70.0985 761.77C136.832 780.263 205.436 747.012 242.261 692.093C279.086 637.174 274.599 565.817 257.589 533.127C257.402 532.753 257.215 532.379 256.841 532.006C263.571 528.083 270.487 523.973 277.216 520.051C290.488 512.205 303.574 504.92 314.789 498.942C308.434 516.315 303.76 537.049 301.517 566.937C298.713 602.056 313.107 647.635 331.987 665.568C340.399 673.413 350.306 673.6 356.662 673.6C378.719 673.6 388.626 655.294 399.655 633.625C413.114 607.099 425.265 576.277 425.265 576.277C425.265 576.277 410.123 659.59 451.248 659.59C466.202 659.59 481.344 640.163 488.073 630.262C488.073 630.449 488.073 630.449 488.073 630.449C488.073 630.449 488.447 629.889 489.195 628.581C490.69 626.153 491.625 624.658 491.625 624.658C491.625 624.658 491.625 624.472 491.625 624.285C497.606 613.824 511.065 590.1 531.067 550.686C556.863 499.876 581.725 436.364 581.725 436.364C581.725 436.364 583.968 451.869 591.632 477.647C596.118 492.778 605.465 509.403 612.942 525.468C606.96 533.874 603.222 538.544 603.222 538.544C603.222 538.544 603.222 538.544 603.408 538.731C598.548 545.082 593.314 551.993 587.519 558.718C567.144 583.002 542.843 610.835 539.479 618.868C535.553 628.394 536.488 635.306 543.965 640.91C549.386 645.02 559.106 645.58 569.013 645.02C587.333 643.712 600.231 639.229 606.586 636.427C616.494 632.878 628.083 627.46 638.925 619.428C658.927 604.671 671.077 583.563 669.955 555.729C669.395 540.412 664.348 525.094 658.179 510.711C660.048 508.095 661.731 505.48 663.6 502.865C695.191 456.725 719.679 406.103 719.679 406.103C719.679 406.103 721.922 421.607 729.586 447.385C733.325 460.461 740.989 474.658 747.718 488.481C717.996 512.579 699.677 540.599 693.135 558.905C681.358 592.903 690.518 608.22 707.902 611.769C715.753 613.45 726.969 609.714 735.194 606.165C745.662 602.803 757.999 597.012 769.776 588.419C789.777 573.662 809.031 553.114 807.909 525.281C807.349 512.579 803.984 500.063 799.311 487.921C824.546 477.46 857.072 471.669 898.57 476.526C987.549 486.987 1005.12 542.467 1001.76 565.817C998.391 589.166 979.698 601.869 973.529 605.792C967.36 609.714 965.304 611.022 965.865 613.824C966.613 617.934 969.604 617.747 974.838 617C982.128 615.692 1021.57 598.133 1023.25 555.169C1026.06 500.25 973.716 440.287 881.186 440.847ZM194.781 672.106C165.246 704.235 124.121 716.377 106.363 706.103C87.296 695.082 94.7732 647.635 131.038 613.637C153.095 592.903 181.509 573.662 200.388 561.894C204.688 559.279 211.043 555.543 218.708 550.873C220.016 550.125 220.764 549.752 220.764 549.752C222.259 548.818 223.755 547.884 225.25 546.95C238.522 595.518 225.811 638.295 194.781 672.106ZM409.749 526.028C399.468 551.059 377.971 615.132 364.886 611.582C353.671 608.594 346.754 560.026 362.643 512.018C370.681 487.921 387.692 459.154 397.599 447.946C413.675 430.013 431.433 424.036 435.733 431.321C441.154 440.847 416.105 510.337 409.749 526.028ZM587.146 610.835C582.846 613.077 578.734 614.571 576.865 613.45C575.556 612.703 578.734 609.714 578.734 609.714C578.734 609.714 600.978 585.804 609.764 574.97C614.811 568.619 620.793 561.147 627.149 552.741C627.149 553.488 627.149 554.422 627.149 555.169C627.149 583.749 599.483 602.99 587.146 610.835ZM723.978 579.64C720.8 577.398 721.361 569.926 732.016 546.576C736.129 537.423 745.849 522.105 762.486 507.348C764.355 513.326 765.663 519.117 765.476 524.534C765.289 560.586 739.493 574.036 723.978 579.64Z" fill="white"/>
</g>
<defs>
<clipPath id="clip0_174_61">
<rect width="1024" height="767" fill="white"/>
</clipPath>
</defs>
</svg>
