<svg width="768" height="768" viewBox="0 0 768 768" fill="none" xmlns="http://www.w3.org/2000/svg">
<g clip-path="url(#clip0_174_57)">
<path d="M693 0H75C33.5786 0 0 33.5786 0 75V693C0 734.421 33.5786 768 75 768H693C734.421 768 768 734.421 768 693V75C768 33.5786 734.421 0 693 0Z" fill="#3178C6"/>
<path d="M693 0H75C33.5786 0 0 33.5786 0 75V693C0 734.421 33.5786 768 75 768H693C734.421 768 768 734.421 768 693V75C768 33.5786 734.421 0 693 0Z" fill="white"/>
<path fill-rule="evenodd" clip-rule="evenodd" d="M475.409 611.136V686.227C487.616 692.485 502.053 697.178 518.721 700.307C535.389 703.436 552.956 705 571.424 705C589.422 705 606.519 703.28 622.717 699.837C638.916 696.396 653.119 690.725 665.326 682.824C677.533 674.925 687.198 664.599 694.318 651.849C701.439 639.099 705 623.339 705 604.566C705 590.955 702.966 579.027 698.896 568.781C694.827 558.534 688.959 549.422 681.289 541.443C673.621 533.465 664.426 526.307 653.706 519.971C642.985 513.635 630.895 507.651 617.436 502.02C607.576 497.952 598.734 494.002 590.909 490.17C583.083 486.336 576.432 482.426 570.954 478.437C565.476 474.447 561.25 470.223 558.277 465.765C555.304 461.306 553.816 456.261 553.816 450.629C553.816 445.467 555.147 440.812 557.808 436.666C560.469 432.52 564.225 428.963 569.076 425.99C573.928 423.018 579.875 420.709 586.917 419.067C593.961 417.424 601.785 416.604 610.393 416.604C616.653 416.604 623.265 417.074 630.23 418.011C637.194 418.95 644.198 420.397 651.242 422.352C658.284 424.308 665.13 426.773 671.783 429.744C678.434 432.717 684.576 436.158 690.21 440.07V369.906C678.786 365.526 666.305 362.28 652.767 360.168C639.23 358.056 623.695 357 606.168 357C588.325 357 571.424 358.917 555.461 362.749C539.498 366.582 525.451 372.566 513.321 380.7C501.192 388.836 491.607 399.199 484.565 411.793C477.522 424.386 474 439.443 474 456.965C474 479.336 480.456 498.422 493.368 514.223C506.278 530.022 525.881 543.398 552.174 554.349C562.503 558.573 572.129 562.717 581.049 566.785C589.97 570.853 597.678 575.077 604.172 579.457C610.667 583.837 615.792 588.609 619.549 593.772C623.305 598.933 625.184 604.8 625.184 611.371C625.184 616.221 624.009 620.718 621.661 624.864C619.314 629.01 615.753 632.607 610.98 635.658C606.207 638.709 600.259 641.094 593.139 642.815C586.017 644.537 577.684 645.396 568.137 645.396C551.86 645.396 535.742 642.541 519.777 636.831C503.814 631.122 489.024 622.557 475.409 611.136ZM349.17 426.123H445.5V364.5H177V426.123H272.859V700.5H349.17V426.123Z" fill="#1D1D1D"/>
</g>
<defs>
<clipPath id="clip0_174_57">
<rect width="768" height="768" fill="white"/>
</clipPath>
</defs>
</svg>
