<svg width="706" height="706" viewBox="0 0 706 706" fill="none" xmlns="http://www.w3.org/2000/svg">
<g clip-path="url(#clip0_174_20)">
<path d="M243.746 311.17L258.808 56.5094C258.928 54.5168 259.706 52.6205 261.022 51.1188C262.337 49.6171 264.114 48.5952 266.074 48.2139L511.173 0.176521C512.687 -0.120743 514.252 -0.0240015 515.717 0.457464C517.183 0.93893 518.5 1.78896 519.543 2.926C520.585 4.06303 521.318 5.44892 521.671 6.95066C522.024 8.45241 521.985 10.0196 521.557 11.5019L475.726 170.44C475.301 171.92 475.262 173.484 475.614 174.982C475.965 176.481 476.695 177.865 477.734 179.001C478.773 180.137 480.086 180.988 481.547 181.472C483.008 181.956 484.569 182.057 486.081 181.766L556.328 168.234C557.981 167.911 559.691 168.058 561.265 168.658C562.838 169.259 564.212 170.288 565.229 171.631C566.246 172.973 566.867 174.573 567.02 176.251C567.173 177.928 566.852 179.614 566.094 181.118L366.355 579.714L362.737 585.303C361.959 586.569 360.868 587.612 359.57 588.334C358.271 589.055 356.809 589.43 355.324 589.422C350.117 589.422 345.028 584.95 346.352 578.567L378.563 422.629C378.879 421.102 378.793 419.518 378.313 418.034C377.833 416.55 376.976 415.216 375.825 414.163C374.674 413.11 373.269 412.375 371.748 412.028C370.227 411.681 368.643 411.736 367.149 412.186L324.995 424.983C323.503 425.437 321.918 425.497 320.396 425.154C318.874 424.812 317.467 424.08 316.313 423.03C315.159 421.979 314.298 420.648 313.814 419.164C313.33 417.681 313.24 416.098 313.552 414.569L333.85 315.288C334.157 313.806 334.086 312.27 333.643 310.822C333.2 309.374 332.398 308.062 331.313 307.006C330.228 305.951 328.894 305.186 327.435 304.782C325.976 304.379 324.439 304.35 322.965 304.698L254.719 320.465C253.357 320.778 251.941 320.77 250.582 320.44C249.224 320.111 247.961 319.47 246.894 318.568C245.826 317.666 244.983 316.528 244.432 315.244C243.881 313.96 243.636 312.565 243.717 311.17H243.746ZM684.29 78.013L508.438 110.018L492.435 165.528L553.533 153.761C558.268 152.817 563.179 153.352 567.599 155.294C572.019 157.236 575.735 160.49 578.243 164.616C580.372 168.047 581.582 171.968 581.757 176.001C581.932 180.035 581.067 184.046 579.243 187.649L379.475 586.274L379.092 587.01L378.651 587.686L375.062 593.275C372.941 596.599 370.02 599.336 366.566 601.238C363.112 603.139 359.237 604.144 355.294 604.16C351.724 604.14 348.202 603.334 344.978 601.798C341.755 600.263 338.909 598.036 336.644 595.276C334.441 592.549 332.875 589.364 332.061 585.954C331.247 582.544 331.204 578.995 331.938 575.567L362.207 429.042L329.261 439.044C324.754 440.401 319.946 440.394 315.444 439.022C310.942 437.651 306.946 434.976 303.962 431.337C301.737 428.62 300.147 425.44 299.307 422.031C298.468 418.621 298.4 415.067 299.109 411.627L317.641 321.024L258.013 334.791C253.977 335.716 249.769 335.57 245.806 334.367C241.844 333.165 238.264 330.949 235.421 327.937C233.218 325.58 231.516 322.801 230.419 319.767C229.321 316.733 228.852 313.508 229.038 310.287L240.481 117.02L21.6211 77.8954C18.2491 77.2868 14.7733 77.6533 11.6023 78.9516C8.43128 80.25 5.69663 82.4264 3.71963 85.2251C1.74263 88.0237 0.605389 91.3285 0.441506 94.7511C0.277623 98.1738 1.0939 101.572 2.79446 104.547L340.645 696.91C342.223 699.683 344.51 701.986 347.271 703.585C350.032 705.183 353.168 706.019 356.358 706.007C359.549 705.995 362.678 705.136 365.427 703.517C368.176 701.898 370.446 699.577 372.003 696.793L703.235 104.488C704.895 101.508 705.674 98.1174 705.482 94.7114C705.29 91.3054 704.134 88.0242 702.149 85.2499C700.163 82.4756 697.431 80.3224 694.269 79.0412C691.107 77.7599 687.647 77.4034 684.29 78.013Z" fill="white"/>
</g>
<defs>
<clipPath id="clip0_174_20">
<rect width="706" height="706" fill="white"/>
</clipPath>
</defs>
</svg>
